<svg xmlns="http://www.w3.org/2000/svg" id="mainsvg" width="771.0688476562501" height="363.00000000000006" viewBox="-10 -10 700.9716796875 330"><defs><marker id="arrow" viewBox="0 0 10 10" refX="10" refY="5" markerWidth="5" markerHeight="5" orient="auto-start-reverse" fill="black"><path d="M 0 0 L 10 5 L 0 10 z"/></marker><filter id="shadowOLD" x="-50%" y="-50%" width="250%" height="250%"><feDropShadow flood-color="black" flood-opacity="0.3" dx="1" dy="1" stdDeviation="2"> </feDropShadow></filter><filter id="shadow-path" filterUnits="userSpaceOnUse" x="-10" y="-10" width="700.9716796875px" height="330px"><feDropShadow flood-color="black" flood-opacity="0.1" dx="1" dy="1" stdDeviation="1"> </feDropShadow></filter><filter id="shadow" filterUnits="userSpaceOnUse" x="-10" y="-10" width="800.9716796875px" height="430px"><feDropShadow flood-color="black" flood-opacity="0.1" dx="1" dy="1" stdDeviation="1"> </feDropShadow></filter></defs><rect x="-10" y="-10" width="700.9716796875" height="330" fill="#fff"/><g transform="translate(0, 0)"><rect width="66.6953125" height="34" stroke="black" fill="white" stroke-width="2" transform="translate(0, 0)" rx="3"/><text fill="black" font-size="16" font-weight="normal" transform="translate(8, 8)" alignment-baseline="middle" font-family="Arial"><tspan x="0" dy="16" font-family="Arial" font-size="16" font-weight="normal">Person</tspan></text></g><g transform="translate(155.3291015625, 0)"><rect width="58.6640625" height="34" stroke="black" fill="white" stroke-width="2" transform="translate(0, 0)" rx="3"/><text fill="black" font-size="16" font-weight="normal" transform="translate(8, 8)" alignment-baseline="middle" font-family="Arial"><tspan x="0" dy="16" font-family="Arial" font-size="16" font-weight="normal">Driver</tspan></text></g><g transform="translate(279.6875, 0)"><rect width="41.78125" height="34" stroke="black" fill="white" stroke-width="2" transform="translate(0, 0)" rx="3"/><text fill="black" font-size="16" font-weight="normal" transform="translate(8, 8)" alignment-baseline="middle" font-family="Arial"><tspan x="0" dy="16" font-family="Arial" font-size="16" font-weight="normal">Car</tspan></text></g><g transform="translate(404.3935546875, 0)"><rect width="100.4921875" height="34" stroke="black" fill="white" stroke-width="2" transform="translate(0, 0)" rx="3"/><text fill="black" font-size="16" font-weight="normal" transform="translate(8, 8)" alignment-baseline="middle" font-family="Arial"><tspan x="0" dy="16" font-family="Arial" font-size="16" font-weight="normal">Passengers</tspan></text></g><g transform="translate(528.8857421875, 0)"><rect width="65.8203125" height="34" stroke="black" fill="white" stroke-width="2" transform="translate(0, 0)" rx="3"/><text fill="black" font-size="16" font-weight="normal" transform="translate(8, 8)" alignment-baseline="middle" font-family="Arial"><tspan x="0" dy="16" font-family="Arial" font-size="16" font-weight="normal">Engine</tspan></text></g><g transform="translate(618.7060546875, 0)"><rect width="62.265625" height="34" stroke="black" fill="white" stroke-width="2" transform="translate(0, 0)" rx="3"/><text fill="black" font-size="16" font-weight="normal" transform="translate(8, 8)" alignment-baseline="middle" font-family="Arial"><tspan x="0" dy="16" font-family="Arial" font-size="16" font-weight="normal">Speed</tspan></text></g><path d="M 33.34765625,74 L 184.6611328125 74" fill="none" stroke="black" stroke-dasharray="none" stroke-width="2" marker-end="url(#arrow)"/><path d="M 300.578125,110 L 184.6611328125 110" fill="none" stroke="black" stroke-dasharray="none" stroke-width="2" marker-end="url(#arrow)"/><path d="M 454.6396484375,146 L 300.578125 146" fill="none" stroke="black" stroke-dasharray="none" stroke-width="2" marker-end="url(#arrow)"/><path d="M 300.578125,182 L 561.7958984375 182" fill="none" stroke="black" stroke-dasharray="none" stroke-width="2" marker-end="url(#arrow)"/><path d="M 300.578125,218 L 561.7958984375 218" fill="none" stroke="black" stroke-dasharray="none" stroke-width="2" marker-end="url(#arrow)"/><path d="M 300.578125,254 L 649.8388671875 254" fill="none" stroke="black" stroke-dasharray="none" stroke-width="2" marker-end="url(#arrow)"/><path d="M 300.578125,290 L 649.8388671875 290" fill="none" stroke="black" stroke-dasharray="none" stroke-width="2" marker-end="url(#arrow)"/><path d="M 33.34765625,34 L 33.34765625 310" fill="none" stroke="black" stroke-dasharray="none" stroke-width="2"/><path d="M 184.6611328125,34 L 184.6611328125 310" fill="none" stroke="black" stroke-dasharray="none" stroke-width="2"/><path d="M 300.578125,34 L 300.578125 310" fill="none" stroke="black" stroke-dasharray="none" stroke-width="2"/><path d="M 454.6396484375,34 L 454.6396484375 310" fill="none" stroke="black" stroke-dasharray="none" stroke-width="2"/><path d="M 561.7958984375,34 L 561.7958984375 310" fill="none" stroke="black" stroke-dasharray="none" stroke-width="2"/><path d="M 649.8388671875,34 L 649.8388671875 310" fill="none" stroke="black" stroke-dasharray="none" stroke-width="2"/><g transform="translate(57.34765625, 46)"><rect width="103.3134765625" height="24" stroke="none" fill="white" stroke-width="0" transform="translate(0, 0)" rx="2"/><text fill="black" font-size="14" font-weight="normal" transform="translate(4, 4)" alignment-baseline="middle" font-family="Arial"><tspan x="0" dy="14" font-family="Arial" font-size="14" font-weight="normal">driver=(person)</tspan></text></g><g transform="translate(208.6611328125, 82)"><rect width="67.9169921875" height="24" stroke="none" fill="white" stroke-width="0" transform="translate(0, 0)" rx="2"/><text fill="black" font-size="14" font-weight="normal" transform="translate(4, 4)" alignment-baseline="middle" font-family="Arial"><tspan x="0" dy="14" font-family="Arial" font-size="14" font-weight="normal">driver.nil?</tspan></text></g><g transform="translate(324.578125, 118)"><rect width="106.0615234375" height="24" stroke="none" fill="white" stroke-width="0" transform="translate(0, 0)" rx="2"/><text fill="black" font-size="14" font-weight="normal" transform="translate(4, 4)" alignment-baseline="middle" font-family="Arial"><tspan x="0" dy="14" font-family="Arial" font-size="14" font-weight="normal">add(passenger)</tspan></text></g><g transform="translate(378.5322265625, 154)"><rect width="105.3095703125" height="24" stroke="none" fill="white" stroke-width="0" transform="translate(0, 0)" rx="2"/><text fill="black" font-size="14" font-weight="normal" transform="translate(4, 4)" alignment-baseline="middle" font-family="Arial"><tspan x="0" dy="14" font-family="Arial" font-size="14" font-weight="normal">turn_on_engine</tspan></text></g><g transform="translate(378.662109375, 190)"><rect width="105.0498046875" height="24" stroke="none" fill="white" stroke-width="0" transform="translate(0, 0)" rx="2"/><text fill="black" font-size="14" font-weight="normal" transform="translate(4, 4)" alignment-baseline="middle" font-family="Arial"><tspan x="0" dy="14" font-family="Arial" font-size="14" font-weight="normal">turn_off_engine</tspan></text></g><g transform="translate(373.5537109375, 226)"><rect width="203.3095703125" height="24" stroke="none" fill="white" stroke-width="0" transform="translate(0, 0)" rx="2"/><text fill="black" font-size="14" font-weight="normal" transform="translate(4, 4)" alignment-baseline="middle" font-family="Arial"><tspan x="0" dy="14" font-family="Arial" font-size="14" font-weight="normal">accelerate(increment, seconds)</tspan></text></g><g transform="translate(422.9638671875, 262)"><rect width="104.4892578125" height="24" stroke="none" fill="white" stroke-width="0" transform="translate(0, 0)" rx="2"/><text fill="black" font-size="14" font-weight="normal" transform="translate(4, 4)" alignment-baseline="middle" font-family="Arial"><tspan x="0" dy="14" font-family="Arial" font-size="14" font-weight="normal">brake(seconds)</tspan></text></g></svg>